<mxfile host="app.diagrams.net" agent="Mozilla/5.0 (Windows NT 10.0; Win64; x64) AppleWebKit/537.36 (KHTML, like Gecko) Chrome/134.0.0.0 Safari/537.36" version="26.2.8">
  <diagram name="Page-1" id="cnXT6vYpDVmSAyNFFru3">
    <mxGraphModel dx="4176" dy="2552" grid="1" gridSize="10" guides="1" tooltips="1" connect="1" arrows="1" fold="1" page="1" pageScale="1" pageWidth="827" pageHeight="15" math="0" shadow="0">
      <root>
        <mxCell id="0" />
        <mxCell id="1" parent="0" />
        <mxCell id="iDEurpcNVyM-DvgQ7Bi_-2" value="" style="whiteSpace=wrap;html=1;fillColor=#E6E6E6;" vertex="1" parent="1">
          <mxGeometry x="9" y="10" width="810" height="50" as="geometry" />
        </mxCell>
        <mxCell id="iDEurpcNVyM-DvgQ7Bi_-34" value="" style="group" vertex="1" connectable="0" parent="1">
          <mxGeometry x="9" y="70" width="810" height="220" as="geometry" />
        </mxCell>
        <mxCell id="iDEurpcNVyM-DvgQ7Bi_-31" value="" style="whiteSpace=wrap;html=1;" vertex="1" parent="iDEurpcNVyM-DvgQ7Bi_-34">
          <mxGeometry width="810" height="220" as="geometry" />
        </mxCell>
        <mxCell id="iDEurpcNVyM-DvgQ7Bi_-32" value="" style="endArrow=none;html=1;rounded=0;exitX=0;exitY=1;exitDx=0;exitDy=0;entryX=1;entryY=0;entryDx=0;entryDy=0;" edge="1" source="iDEurpcNVyM-DvgQ7Bi_-31" target="iDEurpcNVyM-DvgQ7Bi_-31" parent="iDEurpcNVyM-DvgQ7Bi_-34">
          <mxGeometry width="50" height="50" relative="1" as="geometry">
            <mxPoint x="280" y="170" as="sourcePoint" />
            <mxPoint x="330" y="120" as="targetPoint" />
          </mxGeometry>
        </mxCell>
        <mxCell id="iDEurpcNVyM-DvgQ7Bi_-33" value="" style="endArrow=none;html=1;rounded=0;exitX=1;exitY=1;exitDx=0;exitDy=0;entryX=0;entryY=0;entryDx=0;entryDy=0;elbow=vertical;" edge="1" source="iDEurpcNVyM-DvgQ7Bi_-31" target="iDEurpcNVyM-DvgQ7Bi_-31" parent="iDEurpcNVyM-DvgQ7Bi_-34">
          <mxGeometry width="50" height="50" relative="1" as="geometry">
            <mxPoint x="400" y="60" as="sourcePoint" />
            <mxPoint x="450" y="10" as="targetPoint" />
          </mxGeometry>
        </mxCell>
        <mxCell id="iDEurpcNVyM-DvgQ7Bi_-35" value="" style="group" vertex="1" connectable="0" parent="1">
          <mxGeometry x="10" y="320" width="320" height="200" as="geometry" />
        </mxCell>
        <mxCell id="iDEurpcNVyM-DvgQ7Bi_-36" value="" style="whiteSpace=wrap;html=1;" vertex="1" parent="iDEurpcNVyM-DvgQ7Bi_-35">
          <mxGeometry width="320" height="200" as="geometry" />
        </mxCell>
        <mxCell id="iDEurpcNVyM-DvgQ7Bi_-37" value="" style="endArrow=none;html=1;rounded=0;exitX=0;exitY=1;exitDx=0;exitDy=0;entryX=1;entryY=0;entryDx=0;entryDy=0;" edge="1" parent="iDEurpcNVyM-DvgQ7Bi_-35" source="iDEurpcNVyM-DvgQ7Bi_-36" target="iDEurpcNVyM-DvgQ7Bi_-36">
          <mxGeometry width="50" height="50" relative="1" as="geometry">
            <mxPoint x="110.61728395061728" y="154.54545454545453" as="sourcePoint" />
            <mxPoint x="130.37037037037035" y="109.0909090909091" as="targetPoint" />
          </mxGeometry>
        </mxCell>
        <mxCell id="iDEurpcNVyM-DvgQ7Bi_-38" value="" style="endArrow=none;html=1;rounded=0;exitX=1;exitY=1;exitDx=0;exitDy=0;entryX=0;entryY=0;entryDx=0;entryDy=0;elbow=vertical;" edge="1" parent="iDEurpcNVyM-DvgQ7Bi_-35" source="iDEurpcNVyM-DvgQ7Bi_-36" target="iDEurpcNVyM-DvgQ7Bi_-36">
          <mxGeometry width="50" height="50" relative="1" as="geometry">
            <mxPoint x="158.02469135802468" y="54.54545454545455" as="sourcePoint" />
            <mxPoint x="177.77777777777777" y="9.09090909090909" as="targetPoint" />
          </mxGeometry>
        </mxCell>
        <mxCell id="iDEurpcNVyM-DvgQ7Bi_-39" value="&lt;h1 style=&quot;margin-top: 0px;&quot;&gt;Cote d&#39;Ivoire&lt;/h1&gt;&lt;p&gt;Lorem ipsum dolor sit amet, consectetur adipisicing elit, sed do eiusmod tempor incididunt ut labore et dolore magna aliqua.&lt;/p&gt;&lt;p&gt;Lorem ipsum dolor sit amet, consectetur adipisicing elit, sed do eiusmod tempor incididunt ut labore et dolore magna aliqua.&lt;/p&gt;&lt;p&gt;Lorem ipsum dolor sit amet, consectetur adipisicing elit, sed do eiusmod tempor incididunt ut labore et dolore magna aliqua.&lt;/p&gt;" style="text;html=1;whiteSpace=wrap;overflow=hidden;rounded=0;spacingLeft=10;spacingBottom=10;spacingRight=10;" vertex="1" parent="1">
          <mxGeometry x="339" y="320" width="480" height="220" as="geometry" />
        </mxCell>
        <mxCell id="iDEurpcNVyM-DvgQ7Bi_-43" value="" style="group" vertex="1" connectable="0" parent="1">
          <mxGeometry x="480" y="20" width="300" height="30" as="geometry" />
        </mxCell>
        <mxCell id="iDEurpcNVyM-DvgQ7Bi_-40" value="Home" style="rounded=0;whiteSpace=wrap;html=1;" vertex="1" parent="iDEurpcNVyM-DvgQ7Bi_-43">
          <mxGeometry width="100" height="30" as="geometry" />
        </mxCell>
        <mxCell id="iDEurpcNVyM-DvgQ7Bi_-41" value="Tips" style="rounded=0;whiteSpace=wrap;html=1;" vertex="1" parent="iDEurpcNVyM-DvgQ7Bi_-43">
          <mxGeometry x="100" width="100" height="30" as="geometry" />
        </mxCell>
        <mxCell id="iDEurpcNVyM-DvgQ7Bi_-42" value="Contact us" style="rounded=0;whiteSpace=wrap;html=1;" vertex="1" parent="iDEurpcNVyM-DvgQ7Bi_-43">
          <mxGeometry x="200" width="100" height="30" as="geometry" />
        </mxCell>
        <mxCell id="iDEurpcNVyM-DvgQ7Bi_-44" value="" style="group" vertex="1" connectable="0" parent="1">
          <mxGeometry x="28" y="560" width="240" height="160" as="geometry" />
        </mxCell>
        <mxCell id="iDEurpcNVyM-DvgQ7Bi_-45" value="" style="whiteSpace=wrap;html=1;" vertex="1" parent="iDEurpcNVyM-DvgQ7Bi_-44">
          <mxGeometry width="239.99999999999997" height="160" as="geometry" />
        </mxCell>
        <mxCell id="iDEurpcNVyM-DvgQ7Bi_-46" value="" style="endArrow=none;html=1;rounded=0;exitX=0;exitY=1;exitDx=0;exitDy=0;entryX=1;entryY=0;entryDx=0;entryDy=0;" edge="1" parent="iDEurpcNVyM-DvgQ7Bi_-44" source="iDEurpcNVyM-DvgQ7Bi_-45" target="iDEurpcNVyM-DvgQ7Bi_-45">
          <mxGeometry width="50" height="50" relative="1" as="geometry">
            <mxPoint x="82.96296296296295" y="123.63636363636363" as="sourcePoint" />
            <mxPoint x="97.77777777777776" y="87.27272727272727" as="targetPoint" />
          </mxGeometry>
        </mxCell>
        <mxCell id="iDEurpcNVyM-DvgQ7Bi_-47" value="" style="endArrow=none;html=1;rounded=0;exitX=1;exitY=1;exitDx=0;exitDy=0;entryX=0;entryY=0;entryDx=0;entryDy=0;elbow=vertical;" edge="1" parent="iDEurpcNVyM-DvgQ7Bi_-44" source="iDEurpcNVyM-DvgQ7Bi_-45" target="iDEurpcNVyM-DvgQ7Bi_-45">
          <mxGeometry width="50" height="50" relative="1" as="geometry">
            <mxPoint x="118.5185185185185" y="43.63636363636363" as="sourcePoint" />
            <mxPoint x="133.33333333333331" y="7.272727272727272" as="targetPoint" />
          </mxGeometry>
        </mxCell>
        <mxCell id="iDEurpcNVyM-DvgQ7Bi_-49" value="" style="whiteSpace=wrap;html=1;fillColor=#E6E6E6;" vertex="1" parent="1">
          <mxGeometry x="9" y="1056" width="810" height="50" as="geometry" />
        </mxCell>
        <mxCell id="iDEurpcNVyM-DvgQ7Bi_-53" value="" style="group" vertex="1" connectable="0" parent="1">
          <mxGeometry x="293" y="560" width="240" height="160" as="geometry" />
        </mxCell>
        <mxCell id="iDEurpcNVyM-DvgQ7Bi_-54" value="" style="whiteSpace=wrap;html=1;" vertex="1" parent="iDEurpcNVyM-DvgQ7Bi_-53">
          <mxGeometry width="239.99999999999997" height="160" as="geometry" />
        </mxCell>
        <mxCell id="iDEurpcNVyM-DvgQ7Bi_-55" value="" style="endArrow=none;html=1;rounded=0;exitX=0;exitY=1;exitDx=0;exitDy=0;entryX=1;entryY=0;entryDx=0;entryDy=0;" edge="1" parent="iDEurpcNVyM-DvgQ7Bi_-53" source="iDEurpcNVyM-DvgQ7Bi_-54" target="iDEurpcNVyM-DvgQ7Bi_-54">
          <mxGeometry width="50" height="50" relative="1" as="geometry">
            <mxPoint x="82.96296296296295" y="123.63636363636363" as="sourcePoint" />
            <mxPoint x="97.77777777777776" y="87.27272727272727" as="targetPoint" />
          </mxGeometry>
        </mxCell>
        <mxCell id="iDEurpcNVyM-DvgQ7Bi_-56" value="" style="endArrow=none;html=1;rounded=0;exitX=1;exitY=1;exitDx=0;exitDy=0;entryX=0;entryY=0;entryDx=0;entryDy=0;elbow=vertical;" edge="1" parent="iDEurpcNVyM-DvgQ7Bi_-53" source="iDEurpcNVyM-DvgQ7Bi_-54" target="iDEurpcNVyM-DvgQ7Bi_-54">
          <mxGeometry width="50" height="50" relative="1" as="geometry">
            <mxPoint x="118.5185185185185" y="43.63636363636363" as="sourcePoint" />
            <mxPoint x="133.33333333333331" y="7.272727272727272" as="targetPoint" />
          </mxGeometry>
        </mxCell>
        <mxCell id="iDEurpcNVyM-DvgQ7Bi_-57" value="" style="group" vertex="1" connectable="0" parent="1">
          <mxGeometry x="556" y="560" width="240" height="160" as="geometry" />
        </mxCell>
        <mxCell id="iDEurpcNVyM-DvgQ7Bi_-58" value="" style="whiteSpace=wrap;html=1;" vertex="1" parent="iDEurpcNVyM-DvgQ7Bi_-57">
          <mxGeometry width="239.99999999999997" height="160" as="geometry" />
        </mxCell>
        <mxCell id="iDEurpcNVyM-DvgQ7Bi_-59" value="" style="endArrow=none;html=1;rounded=0;exitX=0;exitY=1;exitDx=0;exitDy=0;entryX=1;entryY=0;entryDx=0;entryDy=0;" edge="1" parent="iDEurpcNVyM-DvgQ7Bi_-57" source="iDEurpcNVyM-DvgQ7Bi_-58" target="iDEurpcNVyM-DvgQ7Bi_-58">
          <mxGeometry width="50" height="50" relative="1" as="geometry">
            <mxPoint x="82.96296296296295" y="123.63636363636363" as="sourcePoint" />
            <mxPoint x="97.77777777777776" y="87.27272727272727" as="targetPoint" />
          </mxGeometry>
        </mxCell>
        <mxCell id="iDEurpcNVyM-DvgQ7Bi_-60" value="" style="endArrow=none;html=1;rounded=0;exitX=1;exitY=1;exitDx=0;exitDy=0;entryX=0;entryY=0;entryDx=0;entryDy=0;elbow=vertical;" edge="1" parent="iDEurpcNVyM-DvgQ7Bi_-57" source="iDEurpcNVyM-DvgQ7Bi_-58" target="iDEurpcNVyM-DvgQ7Bi_-58">
          <mxGeometry width="50" height="50" relative="1" as="geometry">
            <mxPoint x="118.5185185185185" y="43.63636363636363" as="sourcePoint" />
            <mxPoint x="133.33333333333331" y="7.272727272727272" as="targetPoint" />
          </mxGeometry>
        </mxCell>
        <mxCell id="iDEurpcNVyM-DvgQ7Bi_-62" value="&lt;font style=&quot;font-size: 16px;&quot;&gt;Lorem ipsum&lt;/font&gt;" style="text;strokeColor=none;fillColor=none;html=1;fontSize=24;fontStyle=1;verticalAlign=middle;align=center;" vertex="1" parent="1">
          <mxGeometry x="95" y="730" width="100" height="40" as="geometry" />
        </mxCell>
        <mxCell id="iDEurpcNVyM-DvgQ7Bi_-63" value="&lt;font style=&quot;font-size: 16px;&quot;&gt;Lorem ipsum&lt;/font&gt;" style="text;strokeColor=none;fillColor=none;html=1;fontSize=24;fontStyle=1;verticalAlign=middle;align=center;" vertex="1" parent="1">
          <mxGeometry x="360" y="730" width="100" height="40" as="geometry" />
        </mxCell>
        <mxCell id="iDEurpcNVyM-DvgQ7Bi_-64" value="&lt;font style=&quot;font-size: 16px;&quot;&gt;Lorem ipsum&lt;/font&gt;" style="text;strokeColor=none;fillColor=none;html=1;fontSize=24;fontStyle=1;verticalAlign=middle;align=center;" vertex="1" parent="1">
          <mxGeometry x="643" y="730" width="100" height="40" as="geometry" />
        </mxCell>
        <mxCell id="iDEurpcNVyM-DvgQ7Bi_-84" value="" style="group" vertex="1" connectable="0" parent="1">
          <mxGeometry x="28" y="801" width="371" height="210" as="geometry" />
        </mxCell>
        <mxCell id="iDEurpcNVyM-DvgQ7Bi_-69" value="" style="rounded=1;whiteSpace=wrap;html=1;arcSize=9;" vertex="1" parent="iDEurpcNVyM-DvgQ7Bi_-84">
          <mxGeometry width="371" height="210" as="geometry" />
        </mxCell>
        <mxCell id="iDEurpcNVyM-DvgQ7Bi_-77" value="" style="endArrow=none;html=1;rounded=0;entryX=0.02;entryY=0.055;entryDx=0;entryDy=0;exitX=0.974;exitY=0.979;exitDx=0;exitDy=0;exitPerimeter=0;entryPerimeter=0;" edge="1" parent="iDEurpcNVyM-DvgQ7Bi_-84" source="iDEurpcNVyM-DvgQ7Bi_-69" target="iDEurpcNVyM-DvgQ7Bi_-69">
          <mxGeometry width="50" height="50" relative="1" as="geometry">
            <mxPoint x="160.5" y="142" as="sourcePoint" />
            <mxPoint x="210.5" y="92" as="targetPoint" />
          </mxGeometry>
        </mxCell>
        <mxCell id="iDEurpcNVyM-DvgQ7Bi_-79" value="" style="endArrow=none;html=1;rounded=0;exitX=0.011;exitY=0.954;exitDx=0;exitDy=0;exitPerimeter=0;entryX=0.981;entryY=0.031;entryDx=0;entryDy=0;entryPerimeter=0;" edge="1" parent="iDEurpcNVyM-DvgQ7Bi_-84" source="iDEurpcNVyM-DvgQ7Bi_-69" target="iDEurpcNVyM-DvgQ7Bi_-69">
          <mxGeometry width="50" height="50" relative="1" as="geometry">
            <mxPoint x="-79.99899999999998" y="203.59000000000003" as="sourcePoint" />
            <mxPoint x="320" y="64.99656076837834" as="targetPoint" />
            <Array as="points" />
          </mxGeometry>
        </mxCell>
        <mxCell id="iDEurpcNVyM-DvgQ7Bi_-85" value="" style="group" vertex="1" connectable="0" parent="1">
          <mxGeometry x="427" y="797" width="371" height="210" as="geometry" />
        </mxCell>
        <mxCell id="iDEurpcNVyM-DvgQ7Bi_-86" value="" style="rounded=1;whiteSpace=wrap;html=1;arcSize=9;" vertex="1" parent="iDEurpcNVyM-DvgQ7Bi_-85">
          <mxGeometry width="371" height="210" as="geometry" />
        </mxCell>
        <mxCell id="iDEurpcNVyM-DvgQ7Bi_-87" value="" style="endArrow=none;html=1;rounded=0;entryX=0.02;entryY=0.055;entryDx=0;entryDy=0;exitX=0.974;exitY=0.979;exitDx=0;exitDy=0;exitPerimeter=0;entryPerimeter=0;" edge="1" parent="iDEurpcNVyM-DvgQ7Bi_-85" source="iDEurpcNVyM-DvgQ7Bi_-86" target="iDEurpcNVyM-DvgQ7Bi_-86">
          <mxGeometry width="50" height="50" relative="1" as="geometry">
            <mxPoint x="160.5" y="142" as="sourcePoint" />
            <mxPoint x="210.5" y="92" as="targetPoint" />
          </mxGeometry>
        </mxCell>
        <mxCell id="iDEurpcNVyM-DvgQ7Bi_-88" value="" style="endArrow=none;html=1;rounded=0;exitX=0.011;exitY=0.954;exitDx=0;exitDy=0;exitPerimeter=0;entryX=0.981;entryY=0.031;entryDx=0;entryDy=0;entryPerimeter=0;" edge="1" parent="iDEurpcNVyM-DvgQ7Bi_-85" source="iDEurpcNVyM-DvgQ7Bi_-86" target="iDEurpcNVyM-DvgQ7Bi_-86">
          <mxGeometry width="50" height="50" relative="1" as="geometry">
            <mxPoint x="-79.99899999999998" y="203.59000000000003" as="sourcePoint" />
            <mxPoint x="320" y="64.99656076837834" as="targetPoint" />
            <Array as="points" />
          </mxGeometry>
        </mxCell>
        <mxCell id="iDEurpcNVyM-DvgQ7Bi_-100" value="" style="group" vertex="1" connectable="0" parent="1">
          <mxGeometry x="29" y="20" width="50" height="30" as="geometry" />
        </mxCell>
        <mxCell id="iDEurpcNVyM-DvgQ7Bi_-17" value="" style="whiteSpace=wrap;html=1;" vertex="1" parent="iDEurpcNVyM-DvgQ7Bi_-100">
          <mxGeometry width="50" height="30" as="geometry" />
        </mxCell>
        <mxCell id="iDEurpcNVyM-DvgQ7Bi_-23" value="" style="endArrow=none;html=1;rounded=0;exitX=1;exitY=1;exitDx=0;exitDy=0;entryX=0;entryY=0;entryDx=0;entryDy=0;elbow=vertical;" edge="1" parent="iDEurpcNVyM-DvgQ7Bi_-100" source="iDEurpcNVyM-DvgQ7Bi_-17" target="iDEurpcNVyM-DvgQ7Bi_-17">
          <mxGeometry width="50" height="50" relative="1" as="geometry">
            <mxPoint x="370" y="100" as="sourcePoint" />
            <mxPoint x="420" y="50" as="targetPoint" />
          </mxGeometry>
        </mxCell>
        <mxCell id="iDEurpcNVyM-DvgQ7Bi_-24" value="" style="endArrow=none;html=1;rounded=0;exitX=0;exitY=1;exitDx=0;exitDy=0;entryX=1;entryY=0;entryDx=0;entryDy=0;elbow=vertical;" edge="1" parent="iDEurpcNVyM-DvgQ7Bi_-100" source="iDEurpcNVyM-DvgQ7Bi_-17" target="iDEurpcNVyM-DvgQ7Bi_-17">
          <mxGeometry width="50" height="50" relative="1" as="geometry">
            <mxPoint x="250" y="210" as="sourcePoint" />
            <mxPoint x="300" y="160" as="targetPoint" />
          </mxGeometry>
        </mxCell>
        <mxCell id="iDEurpcNVyM-DvgQ7Bi_-175" value="" style="group" vertex="1" connectable="0" parent="1">
          <mxGeometry x="847" y="12" width="380" height="727" as="geometry" />
        </mxCell>
        <mxCell id="iDEurpcNVyM-DvgQ7Bi_-89" value="" style="rounded=1;whiteSpace=wrap;html=1;arcSize=11;container=0;" vertex="1" parent="iDEurpcNVyM-DvgQ7Bi_-175">
          <mxGeometry width="380" height="727" as="geometry" />
        </mxCell>
        <mxCell id="iDEurpcNVyM-DvgQ7Bi_-114" value="&lt;h1 style=&quot;margin-top: 0px;&quot;&gt;Cote d&#39;Ivoire&lt;/h1&gt;&lt;p&gt;Lorem ipsum dolor sit amet, consectetur adipisicing elit, sed do eiusmod tempor incididunt ut labore et dolore magna aliqua.&lt;/p&gt;&lt;p&gt;Lorem ipsum dolor sit amet, consectetur adipisicing elit, sed do eiusmod tempor incididunt ut labore et dolore magna aliqua.&lt;/p&gt;&lt;p&gt;Lorem ipsum dolor sit amet, consectetur adipisicing elit, sed do eiusmod tempor incididunt ut labore et dolore magna aliqua.&lt;/p&gt;" style="text;html=1;whiteSpace=wrap;overflow=hidden;rounded=0;spacingLeft=10;spacingBottom=10;spacingRight=10;container=0;" vertex="1" parent="iDEurpcNVyM-DvgQ7Bi_-175">
          <mxGeometry x="12.954545454545453" y="456.4125560538116" width="354.09090909090907" height="179.30493273542598" as="geometry" />
        </mxCell>
        <mxCell id="iDEurpcNVyM-DvgQ7Bi_-92" value="" style="line;strokeWidth=2;html=1;container=0;" vertex="1" parent="iDEurpcNVyM-DvgQ7Bi_-175">
          <mxGeometry x="319.54545454545456" y="17.930493273542652" width="34.54545454545455" height="6.520179372197309" as="geometry" />
        </mxCell>
        <mxCell id="iDEurpcNVyM-DvgQ7Bi_-93" value="" style="line;strokeWidth=2;html=1;container=0;" vertex="1" parent="iDEurpcNVyM-DvgQ7Bi_-175">
          <mxGeometry x="319.54545454545456" y="24.450672645739814" width="34.54545454545455" height="6.520179372197309" as="geometry" />
        </mxCell>
        <mxCell id="iDEurpcNVyM-DvgQ7Bi_-94" value="" style="line;strokeWidth=2;html=1;container=0;" vertex="1" parent="iDEurpcNVyM-DvgQ7Bi_-175">
          <mxGeometry x="319.54545454545456" y="30.970852017937204" width="34.54545454545455" height="6.520179372197309" as="geometry" />
        </mxCell>
        <mxCell id="iDEurpcNVyM-DvgQ7Bi_-95" value="" style="line;strokeWidth=2;html=1;container=0;" vertex="1" parent="iDEurpcNVyM-DvgQ7Bi_-175">
          <mxGeometry x="319.54545454545456" y="37.491031390134594" width="34.54545454545455" height="6.520179372197309" as="geometry" />
        </mxCell>
        <mxCell id="iDEurpcNVyM-DvgQ7Bi_-96" value="" style="line;strokeWidth=2;html=1;container=0;" vertex="1" parent="iDEurpcNVyM-DvgQ7Bi_-175">
          <mxGeometry x="319.54545454545456" y="44.01121076233176" width="34.54545454545455" height="6.520179372197309" as="geometry" />
        </mxCell>
        <mxCell id="iDEurpcNVyM-DvgQ7Bi_-102" value="" style="whiteSpace=wrap;html=1;container=0;" vertex="1" parent="iDEurpcNVyM-DvgQ7Bi_-175">
          <mxGeometry x="34.54545454545455" y="17.930493273542652" width="51.81818181818182" height="32.600896860986545" as="geometry" />
        </mxCell>
        <mxCell id="iDEurpcNVyM-DvgQ7Bi_-103" value="" style="endArrow=none;html=1;rounded=0;exitX=1;exitY=1;exitDx=0;exitDy=0;entryX=0;entryY=0;entryDx=0;entryDy=0;elbow=vertical;" edge="1" parent="iDEurpcNVyM-DvgQ7Bi_-175" source="iDEurpcNVyM-DvgQ7Bi_-102" target="iDEurpcNVyM-DvgQ7Bi_-102">
          <mxGeometry width="50" height="50" relative="1" as="geometry">
            <mxPoint x="354.09090909090907" y="99.432735426009" as="sourcePoint" />
            <mxPoint x="397.2727272727273" y="58.68161434977583" as="targetPoint" />
          </mxGeometry>
        </mxCell>
        <mxCell id="iDEurpcNVyM-DvgQ7Bi_-104" value="" style="endArrow=none;html=1;rounded=0;exitX=0;exitY=1;exitDx=0;exitDy=0;entryX=1;entryY=0;entryDx=0;entryDy=0;elbow=vertical;" edge="1" parent="iDEurpcNVyM-DvgQ7Bi_-175" source="iDEurpcNVyM-DvgQ7Bi_-102" target="iDEurpcNVyM-DvgQ7Bi_-102">
          <mxGeometry width="50" height="50" relative="1" as="geometry">
            <mxPoint x="250.45454545454544" y="189.08520179372204" as="sourcePoint" />
            <mxPoint x="293.6363636363636" y="148.33408071748886" as="targetPoint" />
          </mxGeometry>
        </mxCell>
        <mxCell id="iDEurpcNVyM-DvgQ7Bi_-107" value="" style="whiteSpace=wrap;html=1;container=0;" vertex="1" parent="iDEurpcNVyM-DvgQ7Bi_-175">
          <mxGeometry y="79.05717488789242" width="380" height="185.01008968609864" as="geometry" />
        </mxCell>
        <mxCell id="iDEurpcNVyM-DvgQ7Bi_-108" value="" style="endArrow=none;html=1;rounded=0;exitX=0;exitY=1;exitDx=0;exitDy=0;entryX=1;entryY=0;entryDx=0;entryDy=0;" edge="1" parent="iDEurpcNVyM-DvgQ7Bi_-175" source="iDEurpcNVyM-DvgQ7Bi_-107" target="iDEurpcNVyM-DvgQ7Bi_-107">
          <mxGeometry width="50" height="50" relative="1" as="geometry">
            <mxPoint x="131.35802469135803" y="222.01951691805948" as="sourcePoint" />
            <mxPoint x="154.8148148148148" y="179.97176926212796" as="targetPoint" />
          </mxGeometry>
        </mxCell>
        <mxCell id="iDEurpcNVyM-DvgQ7Bi_-109" value="" style="endArrow=none;html=1;rounded=0;exitX=1;exitY=1;exitDx=0;exitDy=0;entryX=0;entryY=0;entryDx=0;entryDy=0;elbow=vertical;" edge="1" parent="iDEurpcNVyM-DvgQ7Bi_-175" source="iDEurpcNVyM-DvgQ7Bi_-107" target="iDEurpcNVyM-DvgQ7Bi_-107">
          <mxGeometry width="50" height="50" relative="1" as="geometry">
            <mxPoint x="187.6543209876543" y="129.5144720750102" as="sourcePoint" />
            <mxPoint x="211.1111111111111" y="87.46672441907867" as="targetPoint" />
          </mxGeometry>
        </mxCell>
        <mxCell id="iDEurpcNVyM-DvgQ7Bi_-111" value="" style="whiteSpace=wrap;html=1;container=0;" vertex="1" parent="iDEurpcNVyM-DvgQ7Bi_-175">
          <mxGeometry x="12.954545454545453" y="274.6625560538116" width="354.09090909090907" height="168.70964125560536" as="geometry" />
        </mxCell>
        <mxCell id="iDEurpcNVyM-DvgQ7Bi_-112" value="" style="endArrow=none;html=1;rounded=0;exitX=0;exitY=1;exitDx=0;exitDy=0;entryX=1;entryY=0;entryDx=0;entryDy=0;" edge="1" parent="iDEurpcNVyM-DvgQ7Bi_-175" source="iDEurpcNVyM-DvgQ7Bi_-111" target="iDEurpcNVyM-DvgQ7Bi_-111">
          <mxGeometry width="50" height="50" relative="1" as="geometry">
            <mxPoint x="135.35634118967454" y="405.02909702405213" as="sourcePoint" />
            <mxPoint x="157.2138047138047" y="366.68599673868744" as="targetPoint" />
          </mxGeometry>
        </mxCell>
        <mxCell id="iDEurpcNVyM-DvgQ7Bi_-113" value="" style="endArrow=none;html=1;rounded=0;exitX=1;exitY=1;exitDx=0;exitDy=0;entryX=0;entryY=0;entryDx=0;entryDy=0;elbow=vertical;" edge="1" parent="iDEurpcNVyM-DvgQ7Bi_-175" source="iDEurpcNVyM-DvgQ7Bi_-111" target="iDEurpcNVyM-DvgQ7Bi_-111">
          <mxGeometry width="50" height="50" relative="1" as="geometry">
            <mxPoint x="187.81425364758698" y="320.6742763962495" as="sourcePoint" />
            <mxPoint x="209.67171717171718" y="282.3311761108848" as="targetPoint" />
          </mxGeometry>
        </mxCell>
        <mxCell id="iDEurpcNVyM-DvgQ7Bi_-177" value="" style="rounded=1;whiteSpace=wrap;html=1;arcSize=11;container=0;" vertex="1" parent="1">
          <mxGeometry x="1247" y="9" width="380" height="727" as="geometry" />
        </mxCell>
        <mxCell id="iDEurpcNVyM-DvgQ7Bi_-215" value="" style="group" vertex="1" connectable="0" parent="1">
          <mxGeometry x="1264" y="311" width="349" height="265" as="geometry" />
        </mxCell>
        <mxCell id="iDEurpcNVyM-DvgQ7Bi_-206" value="&lt;font style=&quot;font-size: 16px;&quot;&gt;Lorem ipsum&lt;/font&gt;" style="text;strokeColor=none;fillColor=none;html=1;fontSize=24;fontStyle=1;verticalAlign=middle;align=center;" vertex="1" parent="iDEurpcNVyM-DvgQ7Bi_-215">
          <mxGeometry x="124" y="225" width="100" height="40" as="geometry" />
        </mxCell>
        <mxCell id="iDEurpcNVyM-DvgQ7Bi_-210" value="&lt;span style=&quot;color: rgba(0, 0, 0, 0); font-family: monospace; font-size: 0px; text-align: start; text-wrap-mode: nowrap;&quot;&gt;%3CmxGraphModel%3E%3Croot%3E%3CmxCell%20id%3D%220%22%2F%3E%3CmxCell%20id%3D%221%22%20parent%3D%220%22%2F%3E%3CmxCell%20id%3D%222%22%20value%3D%22%26lt%3Bfont%20style%3D%26quot%3Bfont-size%3A%2016px%3B%26quot%3B%26gt%3BLorem%20ipsum%26lt%3B%2Ffont%26gt%3B%22%20style%3D%22text%3BstrokeColor%3Dnone%3BfillColor%3Dnone%3Bhtml%3D1%3BfontSize%3D24%3BfontStyle%3D1%3BverticalAlign%3Dmiddle%3Balign%3Dcenter%3B%22%20vertex%3D%221%22%20parent%3D%221%22%3E%3CmxGeometry%20x%3D%22554%22%20y%3D%221422%22%20width%3D%22100%22%20height%3D%2240%22%20as%3D%22geometry%22%2F%3E%3C%2FmxCell%3E%3C%2Froot%3E%3C%2FmxGraphModel%3E&lt;/span&gt;&lt;span style=&quot;color: rgba(0, 0, 0, 0); font-family: monospace; font-size: 0px; text-align: start; text-wrap-mode: nowrap;&quot;&gt;%3CmxGraphModel%3E%3Croot%3E%3CmxCell%20id%3D%220%22%2F%3E%3CmxCell%20id%3D%221%22%20parent%3D%220%22%2F%3E%3CmxCell%20id%3D%222%22%20value%3D%22%26lt%3Bfont%20style%3D%26quot%3Bfont-size%3A%2016px%3B%26quot%3B%26gt%3BLorem%20ipsum%26lt%3B%2Ffont%26gt%3B%22%20style%3D%22text%3BstrokeColor%3Dnone%3BfillColor%3Dnone%3Bhtml%3D1%3BfontSize%3D24%3BfontStyle%3D1%3BverticalAlign%3Dmiddle%3Balign%3Dcenter%3B%22%20vertex%3D%221%22%20parent%3D%221%22%3E%3CmxGeometry%20x%3D%22554%22%20y%3D%221422%22%20width%3D%22100%22%20height%3D%2240%22%20as%3D%22geometry%22%2F%3E%3C%2FmxCell%3E%3C%2Froot%3E%3C%2FmxGraphModel%3E&lt;/span&gt;" style="whiteSpace=wrap;html=1;" vertex="1" parent="iDEurpcNVyM-DvgQ7Bi_-215">
          <mxGeometry width="349" height="225" as="geometry" />
        </mxCell>
        <mxCell id="iDEurpcNVyM-DvgQ7Bi_-211" value="" style="endArrow=none;html=1;rounded=0;exitX=0;exitY=1;exitDx=0;exitDy=0;entryX=1;entryY=0;entryDx=0;entryDy=0;" edge="1" parent="iDEurpcNVyM-DvgQ7Bi_-215" source="iDEurpcNVyM-DvgQ7Bi_-210" target="iDEurpcNVyM-DvgQ7Bi_-210">
          <mxGeometry width="50" height="50" relative="1" as="geometry">
            <mxPoint x="130.61728395061732" y="-71.18181818181824" as="sourcePoint" />
            <mxPoint x="150.37037037037032" y="-114.36363636363649" as="targetPoint" />
          </mxGeometry>
        </mxCell>
        <mxCell id="iDEurpcNVyM-DvgQ7Bi_-212" value="" style="endArrow=none;html=1;rounded=0;exitX=1;exitY=1;exitDx=0;exitDy=0;entryX=0;entryY=0;entryDx=0;entryDy=0;elbow=vertical;" edge="1" parent="iDEurpcNVyM-DvgQ7Bi_-215" source="iDEurpcNVyM-DvgQ7Bi_-210" target="iDEurpcNVyM-DvgQ7Bi_-210">
          <mxGeometry width="50" height="50" relative="1" as="geometry">
            <mxPoint x="178.0246913580247" y="-166.18181818181824" as="sourcePoint" />
            <mxPoint x="197.77777777777771" y="-209.36363636363626" as="targetPoint" />
          </mxGeometry>
        </mxCell>
        <mxCell id="iDEurpcNVyM-DvgQ7Bi_-216" value="" style="group" vertex="1" connectable="0" parent="1">
          <mxGeometry x="1261" y="34" width="349" height="265" as="geometry" />
        </mxCell>
        <mxCell id="iDEurpcNVyM-DvgQ7Bi_-217" value="&lt;font style=&quot;font-size: 16px;&quot;&gt;Lorem ipsum&lt;/font&gt;" style="text;strokeColor=none;fillColor=none;html=1;fontSize=24;fontStyle=1;verticalAlign=middle;align=center;" vertex="1" parent="iDEurpcNVyM-DvgQ7Bi_-216">
          <mxGeometry x="130" y="225" width="94" height="40" as="geometry" />
        </mxCell>
        <mxCell id="iDEurpcNVyM-DvgQ7Bi_-218" value="&lt;span style=&quot;color: rgba(0, 0, 0, 0); font-family: monospace; font-size: 0px; text-align: start; text-wrap-mode: nowrap;&quot;&gt;%3CmxGraphModel%3E%3Croot%3E%3CmxCell%20id%3D%220%22%2F%3E%3CmxCell%20id%3D%221%22%20parent%3D%220%22%2F%3E%3CmxCell%20id%3D%222%22%20value%3D%22%26lt%3Bfont%20style%3D%26quot%3Bfont-size%3A%2016px%3B%26quot%3B%26gt%3BLorem%20ipsum%26lt%3B%2Ffont%26gt%3B%22%20style%3D%22text%3BstrokeColor%3Dnone%3BfillColor%3Dnone%3Bhtml%3D1%3BfontSize%3D24%3BfontStyle%3D1%3BverticalAlign%3Dmiddle%3Balign%3Dcenter%3B%22%20vertex%3D%221%22%20parent%3D%221%22%3E%3CmxGeometry%20x%3D%22554%22%20y%3D%221422%22%20width%3D%22100%22%20height%3D%2240%22%20as%3D%22geometry%22%2F%3E%3C%2FmxCell%3E%3C%2Froot%3E%3C%2FmxGraphModel%3E&lt;/span&gt;&lt;span style=&quot;color: rgba(0, 0, 0, 0); font-family: monospace; font-size: 0px; text-align: start; text-wrap-mode: nowrap;&quot;&gt;%3CmxGraphModel%3E%3Croot%3E%3CmxCell%20id%3D%220%22%2F%3E%3CmxCell%20id%3D%221%22%20parent%3D%220%22%2F%3E%3CmxCell%20id%3D%222%22%20value%3D%22%26lt%3Bfont%20style%3D%26quot%3Bfont-size%3A%2016px%3B%26quot%3B%26gt%3BLorem%20ipsum%26lt%3B%2Ffont%26gt%3B%22%20style%3D%22text%3BstrokeColor%3Dnone%3BfillColor%3Dnone%3Bhtml%3D1%3BfontSize%3D24%3BfontStyle%3D1%3BverticalAlign%3Dmiddle%3Balign%3Dcenter%3B%22%20vertex%3D%221%22%20parent%3D%221%22%3E%3CmxGeometry%20x%3D%22554%22%20y%3D%221422%22%20width%3D%22100%22%20height%3D%2240%22%20as%3D%22geometry%22%2F%3E%3C%2FmxCell%3E%3C%2Froot%3E%3C%2FmxGraphModel%3E&lt;/span&gt;" style="whiteSpace=wrap;html=1;" vertex="1" parent="iDEurpcNVyM-DvgQ7Bi_-216">
          <mxGeometry y="2" width="349" height="225" as="geometry" />
        </mxCell>
        <mxCell id="iDEurpcNVyM-DvgQ7Bi_-219" value="" style="endArrow=none;html=1;rounded=0;exitX=0;exitY=1;exitDx=0;exitDy=0;entryX=1;entryY=0;entryDx=0;entryDy=0;" edge="1" parent="iDEurpcNVyM-DvgQ7Bi_-216" source="iDEurpcNVyM-DvgQ7Bi_-218" target="iDEurpcNVyM-DvgQ7Bi_-218">
          <mxGeometry width="50" height="50" relative="1" as="geometry">
            <mxPoint x="130.61728395061732" y="-71.18181818181824" as="sourcePoint" />
            <mxPoint x="150.37037037037032" y="-114.36363636363649" as="targetPoint" />
          </mxGeometry>
        </mxCell>
        <mxCell id="iDEurpcNVyM-DvgQ7Bi_-220" value="" style="endArrow=none;html=1;rounded=0;exitX=1;exitY=1;exitDx=0;exitDy=0;entryX=0;entryY=0;entryDx=0;entryDy=0;elbow=vertical;" edge="1" parent="iDEurpcNVyM-DvgQ7Bi_-216" source="iDEurpcNVyM-DvgQ7Bi_-218" target="iDEurpcNVyM-DvgQ7Bi_-218">
          <mxGeometry width="50" height="50" relative="1" as="geometry">
            <mxPoint x="178.0246913580247" y="-166.18181818181824" as="sourcePoint" />
            <mxPoint x="197.77777777777771" y="-209.36363636363626" as="targetPoint" />
          </mxGeometry>
        </mxCell>
        <mxCell id="iDEurpcNVyM-DvgQ7Bi_-222" value="" style="group" vertex="1" connectable="0" parent="1">
          <mxGeometry x="660" y="1065" width="50" height="30" as="geometry" />
        </mxCell>
        <mxCell id="iDEurpcNVyM-DvgQ7Bi_-223" value="" style="whiteSpace=wrap;html=1;" vertex="1" parent="iDEurpcNVyM-DvgQ7Bi_-222">
          <mxGeometry width="50" height="30" as="geometry" />
        </mxCell>
        <mxCell id="iDEurpcNVyM-DvgQ7Bi_-224" value="" style="endArrow=none;html=1;rounded=0;exitX=1;exitY=1;exitDx=0;exitDy=0;entryX=0;entryY=0;entryDx=0;entryDy=0;elbow=vertical;" edge="1" parent="iDEurpcNVyM-DvgQ7Bi_-222" source="iDEurpcNVyM-DvgQ7Bi_-223" target="iDEurpcNVyM-DvgQ7Bi_-223">
          <mxGeometry width="50" height="50" relative="1" as="geometry">
            <mxPoint x="370" y="100" as="sourcePoint" />
            <mxPoint x="420" y="50" as="targetPoint" />
          </mxGeometry>
        </mxCell>
        <mxCell id="iDEurpcNVyM-DvgQ7Bi_-225" value="" style="endArrow=none;html=1;rounded=0;exitX=0;exitY=1;exitDx=0;exitDy=0;entryX=1;entryY=0;entryDx=0;entryDy=0;elbow=vertical;" edge="1" parent="iDEurpcNVyM-DvgQ7Bi_-222" source="iDEurpcNVyM-DvgQ7Bi_-223" target="iDEurpcNVyM-DvgQ7Bi_-223">
          <mxGeometry width="50" height="50" relative="1" as="geometry">
            <mxPoint x="250" y="210" as="sourcePoint" />
            <mxPoint x="300" y="160" as="targetPoint" />
          </mxGeometry>
        </mxCell>
        <mxCell id="iDEurpcNVyM-DvgQ7Bi_-226" value="" style="group" vertex="1" connectable="0" parent="1">
          <mxGeometry x="730" y="1065" width="50" height="30" as="geometry" />
        </mxCell>
        <mxCell id="iDEurpcNVyM-DvgQ7Bi_-227" value="" style="whiteSpace=wrap;html=1;" vertex="1" parent="iDEurpcNVyM-DvgQ7Bi_-226">
          <mxGeometry width="50" height="30" as="geometry" />
        </mxCell>
        <mxCell id="iDEurpcNVyM-DvgQ7Bi_-228" value="" style="endArrow=none;html=1;rounded=0;exitX=1;exitY=1;exitDx=0;exitDy=0;entryX=0;entryY=0;entryDx=0;entryDy=0;elbow=vertical;" edge="1" parent="iDEurpcNVyM-DvgQ7Bi_-226" source="iDEurpcNVyM-DvgQ7Bi_-227" target="iDEurpcNVyM-DvgQ7Bi_-227">
          <mxGeometry width="50" height="50" relative="1" as="geometry">
            <mxPoint x="370" y="100" as="sourcePoint" />
            <mxPoint x="420" y="50" as="targetPoint" />
          </mxGeometry>
        </mxCell>
        <mxCell id="iDEurpcNVyM-DvgQ7Bi_-229" value="" style="endArrow=none;html=1;rounded=0;exitX=0;exitY=1;exitDx=0;exitDy=0;entryX=1;entryY=0;entryDx=0;entryDy=0;elbow=vertical;" edge="1" parent="iDEurpcNVyM-DvgQ7Bi_-226" source="iDEurpcNVyM-DvgQ7Bi_-227" target="iDEurpcNVyM-DvgQ7Bi_-227">
          <mxGeometry width="50" height="50" relative="1" as="geometry">
            <mxPoint x="250" y="210" as="sourcePoint" />
            <mxPoint x="300" y="160" as="targetPoint" />
          </mxGeometry>
        </mxCell>
        <mxCell id="iDEurpcNVyM-DvgQ7Bi_-231" value="Home Page mobile" style="text;strokeColor=none;fillColor=none;html=1;fontSize=24;fontStyle=1;verticalAlign=middle;align=center;" vertex="1" parent="1">
          <mxGeometry x="879" y="-39" width="202" height="40" as="geometry" />
        </mxCell>
        <mxCell id="iDEurpcNVyM-DvgQ7Bi_-232" value="Home Page desktop&amp;nbsp;" style="text;strokeColor=none;fillColor=none;html=1;fontSize=24;fontStyle=1;verticalAlign=middle;align=center;" vertex="1" parent="1">
          <mxGeometry x="28" y="-50" width="202" height="40" as="geometry" />
        </mxCell>
      </root>
    </mxGraphModel>
  </diagram>
</mxfile>
